Coordinates
version=1
nRows=13
nColumns=26
inDegrees=yes

Units are S.I. units (second, meters, Newtons, ...)
Angles are in degrees.

endheader
time	pelvis_tilt	pelvis_list	pelvis_rotation	pelvis_tx	pelvis_ty	pelvis_tz	hip_flexion_r	hip_adduction_r	hip_rotation_r	knee_angle_r	knee_angle_r_beta	ankle_angle_r	subtalar_angle_r	mtp_angle_r	hip_flexion_l	hip_adduction_l	hip_rotation_l	knee_angle_l	knee_angle_l_beta	ankle_angle_l	subtalar_angle_l	mtp_angle_l	lumbar_extension	lumbar_bending	lumbar_rotation
    224.38571430	    -12.25714812	      2.94506621	     -7.58549697	      0.29262541	      1.05416529	      0.22465175	    -16.99331139	     -3.84360012	     -3.95318212	     14.10014967	     14.10014967	    -30.12108343	     -9.14129396	      0.00000000	     44.28118945	      0.53157946	      2.20744241	     33.22232881	     33.22232881	     -9.79247075	    -22.28273559	      0.00000000	     -0.89251231	     -3.87065041	     18.44548745
    224.39571430	    -11.32398724	      1.38329070	     -7.62904290	      0.29604549	      1.05559912	      0.22512749	    -18.19342517	     -2.34558085	     -2.64682057	     17.83124626	     17.83124626	    -29.91790391	    -11.77438803	      0.00000000	     41.69473428	     -0.87288294	      2.68348587	     27.81111812	     27.81111812	     -9.65513634	    -19.67308344	      0.00000000	     -1.83171827	     -2.45284535	     18.72750720
    224.40571430	    -10.42978788	      0.13275018	     -7.52116560	      0.29898635	      1.05613417	      0.22493625	    -18.82560472	     -1.23399121	     -2.09643105	     22.43187245	     22.43187245	    -30.08861763	    -14.16852075	      0.00000000	     39.32622095	     -1.89548096	      3.03757698	     23.32129454	     23.32129454	     -9.36312374	    -17.49426609	      0.00000000	     -2.73875508	     -1.33593479	     18.76634602
    224.41571430	     -9.79002341	     -1.04991439	     -7.24327358	      0.30103842	      1.05569669	      0.22459858	    -18.76232817	     -0.08945924	     -1.69747757	     27.70166673	     27.70166673	    -30.89031198	    -17.07680067	      0.00000000	     37.51842493	     -2.85434045	      3.12497205	     20.03944897	     20.03944897	     -8.91437670	    -15.50145763	      0.00000000	     -3.43332617	     -0.25813464	     18.56774734
    224.42571430	     -9.34030169	     -2.04493561	     -6.93228591	      0.30255883	      1.05399505	      0.22411318	    -18.07365881	      0.89743395	     -1.39599905	     33.61696205	     33.61696205	    -31.83679763	    -20.20578162	      0.00000000	     36.22718694	     -3.66727947	      2.65385296	     18.01386155	     18.01386155	     -8.51810786	    -14.26401305	      0.00000000	     -3.92148456	      0.64211144	     18.35067914
    224.43571430	     -8.97206389	     -2.68145708	     -6.55915409	      0.30377383	      1.05108091	      0.22344516	    -16.89407390	      1.52624876	     -1.27932213	     40.10754696	     40.10754696	    -32.39475629	    -22.89405318	      0.00000000	     35.26996747	     -4.11744694	      1.63721784	     17.09257762	     17.09257762	     -8.23153256	    -13.81139725	      0.00000000	     -4.28724917	      1.15738913	     18.03034249
    224.44571430	     -8.48913392	     -3.19760126	     -6.03216079	      0.30462245	      1.04737434	      0.22294947	    -15.58574949	      2.11649309	     -1.28460115	     46.81315088	     46.81315088	    -32.44851773	    -25.13408273	      0.00000000	     34.36099452	     -4.34756388	      0.83191006	     17.13803743	     17.13803743	     -8.18765888	    -13.95126645	      0.00000000	     -4.80753481	      1.46181224	     17.47724196
    224.45571430	     -8.15617687	     -3.52190032	     -5.57070500	      0.30509628	      1.04240912	      0.22253286	    -13.83057624	      2.58080422	     -1.13869550	     53.72018598	     53.72018598	    -32.39114420	    -26.91713190	      0.00000000	     33.75837134	     -4.39400886	      0.57421713	     18.03950194	     18.03950194	     -8.33980201	    -14.58143267	      0.00000000	     -5.13213425	      1.59995425	     17.05634036
    224.46571430	     -7.58279464	     -3.68618736	     -4.99359072	      0.30562862	      1.03682093	      0.22224715	    -12.25615272	      2.93110645	     -1.10240845	     60.40886727	     60.40886727	    -31.83948722	    -28.04350724	      0.00000000	     32.79019061	     -4.16181382	      1.04691879	     19.25762571	     19.25762571	     -8.32805320	    -15.18262206	      0.00000000	     -5.71126918	      1.51823658	     16.42213141
    224.47571430	     -7.12998077	     -3.67373397	     -4.40497867	      0.30586765	      1.03014849	      0.22214980	    -10.43281695	      3.03252068	     -1.28155353	     66.91349225	     66.91349225	    -30.89930649	    -28.49821179	      0.00000000	     31.76486009	     -3.73046142	      1.83440573	     20.47899073	     20.47899073	     -8.61685728	    -15.57003474	      0.00000000	     -6.18568015	      1.22919508	     15.61115677
    224.48571430	     -6.85417237	     -3.25441167	     -3.77812847	      0.30554503	      1.02248240	      0.22179614	     -8.25510309	      2.62795879	     -1.62769035	     73.34284538	     73.34284538	    -29.46705668	    -28.35728903	      0.00000000	     30.82235931	     -2.81318334	      2.64224363	     21.79605133	     21.79605133	     -9.18809818	    -16.66721937	      0.00000000	     -6.53232410	      0.48953929	     14.57326118
    224.49571430	     -6.77541073	     -2.06926699	     -2.91053877	      0.30447724	      1.01402962	      0.22047197	     -5.68324571	      1.18149212	     -2.44527178	     79.67316519	     79.67316519	    -27.91342135	    -28.23967886	      0.00000000	     30.36538640	     -0.92811172	      2.84136672	     24.25135297	     24.25135297	     -7.28407946	    -18.43620463	      0.00000000	     -6.75186043	     -1.03056380	     13.02270223
    224.50571430	     -7.18300152	     -0.29050962	     -1.94924136	      0.30207536	      1.00447348	      0.21841680	     -2.36792880	     -1.18390807	     -3.26507043	     86.02425568	     86.02425568	    -25.77610937	    -27.52193634	      0.00000000	     30.60393188	      1.82834286	      2.82318810	     27.43839249	     27.43839249	     -3.54807729	    -21.32827669	      0.00000000	     -6.60723928	     -3.11726676	     11.28224928
